# xmcd
#
# Track frame offsets:
# 150
# 18815
# 35955
# 52030
# 68072
# 81460
# 96085
# 112187
# 127104
# 143545
# 156120
# 175467
# 196442
# 211105
#
# Disc length: 3022 seconds
#
#
# Revision: 3
# Processed by: cddbd v1.5.2PL0 Copyright (c) Steve Scherf et al.
# Submitted via: FreeRIP 2.944 
#
DISCID=cc0bcc0e
DTITLE=Chitãozinho e Xororó - Nossa História no Sertão
DYEAR=1997
DGENRE=Sertanejo
TTITLE0=Nuvem de Lágrimas
TTITLE1=O Rio
TTITLE2=Saudade Dela
TTITLE3=Coração Sertanejo
TTITLE4=Cavalo Enxuto
TTITLE5=Va Para o Inferno Com Seu Amor
TTITLE6=Colheita de Milho
TTITLE7=Loira Gelada
TTITLE8=Pensando em Minha Amada
TTITLE9=Sorriso Mudo
TTITLE10=Natureza, Espelho de Deus
TTITLE11=Caipira
TTITLE12=Planeta Azul
TTITLE13=Bailão de Peão
EXTD=YEAR: 1997
EXTT0=
EXTT1=
EXTT2=
EXTT3=
EXTT4=
EXTT5=
EXTT6=
EXTT7=
EXTT8=
EXTT9=
EXTT10=
EXTT11=
EXTT12=
EXTT13=
PLAYORDER=
